<?xml version="1.0" encoding="utf-8"?>
<!-- Generator: Adobe Illustrator 16.0.0, SVG Export Plug-In . SVG Version: 6.00 Build 0)  -->
<!DOCTYPE svg PUBLIC "-//W3C//DTD SVG 1.1//EN" "http://www.w3.org/Graphics/SVG/1.1/DTD/svg11.dtd">
<svg version="1.1" id="Calque_1" xmlns="http://www.w3.org/2000/svg" xmlns:xlink="http://www.w3.org/1999/xlink" x="0px" y="0px"
	 width="200px" height="200px" viewBox="0 0 200 200" enable-background="new 0 0 200 200" xml:space="preserve">
<circle fill="none" stroke="#FF725E" stroke-width="3" stroke-miterlimit="10" cx="100" cy="100" r="90"/>
<g>
	<path fill="#FF725E" d="M113.626,22.004l-1.344,6.453l-1.4-0.292l1.682-8.079l2.263,0.471l0.496,6.251l2.951-5.534l2.262,0.471
		l-1.682,8.08l-1.4-0.292l1.344-6.453l-3.283,6.049l-1.293-0.269L113.626,22.004z"/>
	<path fill="#FF725E" d="M126.912,23.696c2.386,0.843,3.18,3.223,2.429,5.35c-0.751,2.127-2.862,3.482-5.249,2.64
		s-3.18-3.223-2.429-5.35C122.413,24.209,124.525,22.854,126.912,23.696z M126.509,24.838c-1.142-0.403-2.664,0.11-3.342,2.029
		c-0.677,1.92,0.187,3.274,1.328,3.678c1.141,0.402,2.664-0.11,3.341-2.03C128.514,26.596,127.65,25.241,126.509,24.838z"/>
	<path fill="#FF725E" d="M132.23,25.834l1.434,0.697l-0.978,6.261l4.24-4.674l1.434,0.697l-5.978,6.262l-1.275-0.62L132.23,25.834z"
		/>
	<path fill="#FF725E" d="M140.001,29.761l4.638,2.847l-0.633,1.031l-3.372-2.071l-1.151,1.874l3.186,1.956l-0.604,0.984
		l-3.186-1.956l-1.294,2.108l3.513,2.157l-0.633,1.031l-4.778-2.934L140.001,29.761z"/>
	<path fill="#FF725E" d="M147.686,40.358l0.924-4.954l1.319,1.079l-0.642,3.097l2.898-1.253l1.319,1.079l-4.67,1.892l-2.422,2.963
		l-1.149-0.939L147.686,40.358z"/>
	<path fill="#FF725E" d="M157.671,43.271c1.775,1.804,1.445,4.292-0.163,5.875c-1.607,1.583-4.101,1.875-5.876,0.071
		c-1.776-1.804-1.445-4.292,0.163-5.875C153.402,41.759,155.895,41.467,157.671,43.271z M156.808,44.12
		c-0.849-0.862-2.442-1.069-3.894,0.359s-1.269,3.025-0.42,3.888c0.85,0.863,2.443,1.07,3.895-0.358S157.657,44.983,156.808,44.12z"
		/>
	<path fill="#FF725E" d="M158.066,51.206l3.965-3.062l0.908,1.176l-3.747,2.894c-1.307,1.01-1.349,1.946-0.742,2.73
		c0.605,0.784,1.521,0.98,2.829-0.029l3.746-2.894l0.908,1.176l-3.964,3.062c-1.917,1.48-3.432,1.051-4.609-0.474
		S156.149,52.686,158.066,51.206z"/>
	<path fill="#FF725E" d="M164.908,60.354l-0.723-1.183l-3.004,1.836l-0.774-1.267l7.038-4.303l1.75,2.862
		c1.119,1.83,0.676,3.003-0.497,3.72c-0.91,0.557-1.904,0.533-2.819-0.352l-2.029,3.703l-0.889-1.455L164.908,60.354z
		 M167.924,60.754c0.599-0.392,0.831-0.96,0.258-1.898l-0.946-1.548l-2.065,1.262l0.947,1.548
		C166.69,61.056,167.325,61.146,167.924,60.754z"/>
	<path fill="#FF725E" d="M169.273,66.953c2.077-0.876,4.499-0.227,5.482,2.104c0.598,1.418,0.396,2.78-0.321,3.823l-1.265-0.648
		c0.728-0.963,0.855-1.792,0.471-2.704c-0.47-1.115-1.873-1.896-3.747-1.105c-1.875,0.791-2.295,2.34-1.825,3.455
		c0.385,0.912,1.067,1.399,2.265,1.551l-0.418,1.358c-1.247-0.214-2.363-1.02-2.961-2.439
		C165.971,70.017,167.197,67.829,169.273,66.953z"/>
	<path fill="#FF725E" d="M171.824,75.579l4.805-1.41l0.418,1.426l-4.54,1.332c-1.584,0.465-1.963,1.321-1.685,2.272
		c0.279,0.95,1.061,1.466,2.645,1.001l4.541-1.332l0.418,1.426l-4.805,1.409c-2.323,0.682-3.576-0.27-4.119-2.117
		C168.96,77.738,169.502,76.26,171.824,75.579z"/>
	<path fill="#FF725E" d="M174.869,86.587l-0.242-1.365l-3.467,0.615l-0.26-1.462l8.126-1.442l0.586,3.304
		c0.375,2.113-0.466,3.044-1.819,3.284c-1.051,0.187-1.969-0.198-2.498-1.356l-3.24,2.709l-0.299-1.679L174.869,86.587z
		 M177.533,88.059c0.7-0.146,1.124-0.591,0.932-1.674l-0.316-1.788l-2.384,0.423l0.317,1.788
		C176.274,87.891,176.833,88.205,177.533,88.059z"/>
	<path fill="#FF725E" d="M174.878,97.803c-1.48,0.107-2.497-0.977-2.632-2.842c-0.102-1.404,0.334-3.002,1.607-3.701l0.969,1.198
		c-0.9,0.506-1.333,1.387-1.26,2.407c0.067,0.933,0.44,1.512,1.153,1.46c1.811-0.131,0.263-4.761,3.39-4.987
		c1.371-0.099,2.43,0.817,2.557,2.572c0.1,1.382-0.36,2.485-1.188,3.251l-1.07-0.926c0.52-0.435,1.013-1.242,0.941-2.229
		c-0.048-0.658-0.416-1.183-0.965-1.144C176.625,92.99,178.279,97.558,174.878,97.803z"/>
	<path fill="#FF725E" d="M180.815,103.381c-0.105,2.527-2.147,3.983-4.399,3.89c-2.252-0.095-4.166-1.715-4.061-4.241
		c0.105-2.527,2.147-3.983,4.399-3.889S180.921,100.854,180.815,103.381z M179.606,103.331c0.051-1.209-0.886-2.513-2.918-2.598
		s-3.074,1.138-3.124,2.346c-0.051,1.209,0.886,2.514,2.918,2.598C178.515,105.762,179.557,104.539,179.606,103.331z"/>
	<path fill="#FF725E" d="M175.107,112.003l0.218-1.368l-3.477-0.553l0.232-1.466l8.148,1.293l-0.526,3.313
		c-0.336,2.118-1.435,2.724-2.793,2.508c-1.054-0.167-1.795-0.83-1.917-2.097l-3.946,1.501l0.267-1.685L175.107,112.003z
		 M177.144,114.265c0.709,0.09,1.255-0.191,1.428-1.277l0.284-1.793l-2.39-0.379l-0.285,1.793
		C176.009,113.694,176.434,114.174,177.144,114.265z"/>
	<path fill="#FF725E" d="M176.905,125.118c-0.786,2.404-3.146,3.252-5.289,2.551c-2.143-0.7-3.546-2.778-2.76-5.183
		s3.146-3.252,5.289-2.552C176.288,120.636,177.691,122.714,176.905,125.118z M175.756,124.742c0.376-1.15-0.172-2.659-2.105-3.292
		c-1.934-0.632-3.268,0.262-3.644,1.412c-0.376,1.149,0.172,2.659,2.105,3.292C174.046,126.786,175.38,125.892,175.756,124.742z"/>
	<path fill="#FF725E" d="M174.912,130.482l-0.664,1.451l-6.289-0.83l4.778,4.134l-0.664,1.451l-6.408-5.835l0.591-1.292
		L174.912,130.482z"/>
	<path fill="#FF725E" d="M171.172,138.329l-2.742,4.706l-1.046-0.609l1.994-3.422l-1.901-1.108l-1.883,3.232l-0.998-0.582
		l1.883-3.231l-2.139-1.247l-2.077,3.565l-1.046-0.609l2.825-4.849L171.172,138.329z"/>
	<path fill="#FF725E" d="M161.559,144.662l0.814-1.121l-2.846-2.07l0.873-1.201l6.672,4.853l-1.974,2.713
		c-1.262,1.735-2.515,1.775-3.627,0.967c-0.862-0.628-1.222-1.555-0.755-2.739l-4.198-0.455l1.003-1.379L161.559,144.662z
		 M162.346,147.601c0.591,0.403,1.204,0.4,1.852-0.489l1.067-1.468l-1.957-1.423l-1.067,1.468
		C161.593,146.578,161.754,147.198,162.346,147.601z"/>
	<path fill="#FF725E" d="M156.032,158.281l-0.872-0.839l1.678-1.745l-5.078-4.883l1.03-1.071l5.078,4.883l1.679-1.746l0.873,0.84
		L156.032,158.281z"/>
	<path fill="#FF725E" d="M147.684,159.563l2.9-2.447l-2.412-2.859l1.135-0.957l5.321,6.306l-1.135,0.957l-2.129-2.521l-2.9,2.447
		l2.129,2.522l-1.135,0.958l-5.322-6.306l1.136-0.958L147.684,159.563z"/>
	<path fill="#FF725E" d="M147.239,165.588l-4.517,3.044l-0.676-1.004l3.284-2.214l-1.229-1.824l-3.103,2.09l-0.646-0.958
		l3.103-2.091l-1.384-2.053l-3.422,2.306l-0.677-1.003l4.654-3.137L147.239,165.588z"/>
	<path fill="#FF725E" d="M137.696,171.536l-2.334,1.111c-2.683,1.277-4.631,0.255-5.648-1.88c-1.158-2.435-0.532-4.316,1.803-5.429
		l2.632-1.253L137.696,171.536z M135.858,171.131l-2.554-5.363l-1.192,0.567c-1.44,0.686-1.975,1.61-0.958,3.746
		c0.757,1.59,1.973,2.352,3.562,1.595L135.858,171.131z"/>
	<path fill="#FF725E" d="M125.642,176.737c-2.4,0.8-4.487-0.592-5.201-2.731c-0.713-2.14,0.122-4.505,2.522-5.306
		c2.4-0.8,4.488,0.592,5.201,2.731S128.042,175.937,125.642,176.737z M125.259,175.589c1.148-0.383,2.036-1.722,1.392-3.653
		c-0.644-1.931-2.156-2.47-3.305-2.087s-2.035,1.722-1.392,3.652C122.598,175.433,124.111,175.972,125.259,175.589z"/>
	<path fill="#FF725E" d="M118.855,174.401c0.45,2.209-0.662,4.455-3.14,4.961c-1.509,0.308-2.804-0.158-3.685-1.066l0.884-1.111
		c0.802,0.902,1.59,1.19,2.559,0.992c1.186-0.241,2.227-1.464,1.82-3.457c-0.407-1.992-1.844-2.709-3.028-2.468
		c-0.97,0.198-1.582,0.771-1.966,1.916l-1.249-0.677c0.455-1.182,1.465-2.116,2.973-2.424
		C116.502,170.562,118.405,172.193,118.855,174.401z"/>
	<path fill="#FF725E" d="M109.902,175.199l0.438,4.985l-1.479,0.13l-0.413-4.711c-0.145-1.644-0.909-2.184-1.896-2.098
		c-0.985,0.087-1.646,0.752-1.501,2.396l0.413,4.711l-1.479,0.13l-0.438-4.985c-0.212-2.41,0.967-3.452,2.884-3.62
		C108.35,171.969,109.69,172.789,109.902,175.199z"/>
	<path fill="#FF725E" d="M99.811,179.158l0.228-6.581l1.429,0.05l-0.286,8.239l-2.307-0.08l-1.549-6.07l-1.966,5.948l-2.307-0.08
		l0.286-8.239l1.428,0.05l-0.228,6.58l2.206-6.512l1.318,0.046L99.811,179.158z"/>
	<path fill="#FF725E" d="M90.232,180.243l-5.385-0.823l0.183-1.197l3.917,0.599l0.333-2.176l-3.699-0.565l0.174-1.143l3.699,0.565
		l0.374-2.447l-4.08-0.624l0.183-1.196l5.548,0.848L90.232,180.243z"/>
	<path fill="#FF725E" d="M81.579,176.03l1.454-5.478l1.436,0.381l-2.117,7.977l-1.648-0.438l-1.631-6.296l-1.454,5.478l-1.436-0.381
		l2.117-7.977l1.649,0.438L81.579,176.03z"/>
	<path fill="#FF725E" d="M68.461,174.453l0.428-1.132l2.263,0.856l2.49-6.582l1.389,0.525l-2.49,6.582l2.262,0.855l-0.428,1.132
		L68.461,174.453z"/>
	<path fill="#FF725E" d="M59.029,169.704l0.572-1.065l2.132,1.145l3.33-6.201l1.308,0.703l-3.33,6.201l2.132,1.145l-0.573,1.065
		L59.029,169.704z"/>
	<path fill="#FF725E" d="M54.221,166.695c-2.084-1.432-2.233-3.935-0.957-5.793c1.276-1.857,3.666-2.617,5.75-1.186
		c2.085,1.432,2.233,3.935,0.957,5.793C58.695,167.367,56.305,168.128,54.221,166.695z M54.905,165.698
		c0.997,0.686,2.6,0.585,3.751-1.092s0.67-3.208-0.327-3.893s-2.6-0.585-3.751,1.092S53.909,165.014,54.905,165.698z"/>
	<path fill="#FF725E" d="M46.556,158.396l4.606-4.707l1.021,1l-5.768,5.894l-1.65-1.615l2.949-5.529l-5.464,3.068l-1.65-1.615
		l5.768-5.894l1.021,1l-4.606,4.707l6.021-3.323l0.943,0.923L46.556,158.396z"/>
	<path fill="#FF725E" d="M36.271,149.819c-1.558-1.994-0.947-4.427,0.83-5.815s4.285-1.395,5.844,0.599
		c1.558,1.993,0.946,4.426-0.83,5.814C40.338,151.807,37.83,151.812,36.271,149.819z M37.225,149.074
		c0.745,0.953,2.304,1.34,3.908,0.087c1.604-1.254,1.604-2.86,0.859-3.813s-2.304-1.341-3.908-0.087
		C36.48,146.514,36.479,148.12,37.225,149.074z"/>
	<path fill="#FF725E" d="M32.457,144.436l-1.334-2.213c-1.533-2.542-0.708-4.579,1.317-5.8c2.307-1.391,4.24-0.952,5.574,1.261
		l1.504,2.495L32.457,144.436z M32.679,142.568l5.084-3.065l-0.681-1.13c-0.823-1.364-1.795-1.806-3.819-0.585
		c-1.506,0.908-2.145,2.191-1.236,3.697L32.679,142.568z"/>
	<path fill="#FF725E" d="M27.921,136.512l-0.659-1.331l7.393-3.662l0.659,1.331L27.921,136.512z"/>
	<path fill="#FF725E" d="M26.157,132.892l-2.069-5.038l1.12-0.46l1.505,3.664l2.036-0.836l-1.38-3.358l1.069-0.439l1.38,3.358
		l3.409-1.4l0.564,1.374L26.157,132.892z"/>
	<path fill="#FF725E" d="M27.191,123.079l-3.518,3.607l-0.499-1.63l2.252-2.219l-3.106-0.567l-0.499-1.629l4.935,1.019l3.659-1.12
		l0.435,1.419L27.191,123.079z"/>
	<path fill="#FF725E" d="M20.708,115.683l-0.892-5.371l1.193-0.197l0.648,3.905l2.17-0.36l-0.594-3.58l1.139-0.188l0.594,3.58
		l3.635-0.604l0.243,1.465L20.708,115.683z"/>
	<path fill="#FF725E" d="M19.226,104.415c-0.137-2.527,1.757-4.172,4.01-4.294c2.252-0.122,4.313,1.309,4.45,3.836
		c0.137,2.526-1.757,4.172-4.01,4.294C21.423,108.373,19.362,106.941,19.226,104.415z M20.434,104.35
		c0.065,1.208,1.123,2.418,3.155,2.309c2.032-0.11,2.953-1.428,2.887-2.636c-0.065-1.209-1.123-2.419-3.155-2.309
		C21.289,101.824,20.369,103.141,20.434,104.35z"/>
	<path fill="#FF725E" d="M21.865,96.531l5.65,0.37l-0.097,1.481l-8.229-0.538l0.111-1.701l5.858-2.812l-5.65-0.369l0.097-1.481
		l8.229,0.538l-0.111,1.701L21.865,96.531z"/>
	<path fill="#FF725E" d="M20.876,83.339l1.193,0.201l-0.403,2.387l6.943,1.172l-0.247,1.465l-6.943-1.172l-0.403,2.387l-1.193-0.202
		L20.876,83.339z"/>
	<path fill="#FF725E" d="M28.605,77.245c1.434,0.387,2.035,1.746,1.547,3.552c-0.367,1.359-1.305,2.724-2.737,2.964l-0.52-1.451
		c1.018-0.181,1.716-0.869,1.983-1.857c0.244-0.903,0.083-1.573-0.607-1.759c-1.752-0.474-1.818,4.409-4.844,3.591
		c-1.328-0.359-2.025-1.573-1.566-3.272c0.361-1.338,1.16-2.228,2.193-2.678l0.705,1.228c-0.634,0.239-1.366,0.839-1.624,1.794
		c-0.172,0.637,0.003,1.254,0.534,1.398C25.368,81.214,25.313,76.356,28.605,77.245z"/>
	<path fill="#FF725E" d="M24.69,70.601l1.327-3.081c0.848-1.97,2.112-2.264,3.425-1.698c1.313,0.565,1.968,1.686,1.12,3.655
		l-0.739,1.717l3.03,1.305l-0.587,1.364L24.69,70.601z M28.854,67.186c-0.716-0.284-1.364-0.168-1.799,0.842l-0.717,1.667
		l2.424,1.044l0.717-1.667C29.915,68.061,29.57,67.47,28.854,67.186z"/>
	<path fill="#FF725E" d="M36.16,62.164l-1.653,2.932l1.141,1.337l-0.783,1.39l-5.647-6.782L30,59.651l8.672,1.416l-0.783,1.39
		L36.16,62.164z M33.675,64.109l1.215-2.156l-3.542-0.595L33.675,64.109z"/>
	<path fill="#FF725E" d="M38.089,55.828l-0.805,1.126L40.146,59l-0.863,1.207l-6.706-4.795l1.95-2.727
		c1.247-1.744,2.499-1.794,3.617-0.995c0.868,0.62,1.234,1.544,0.777,2.731l4.199,0.421l-0.991,1.386L38.089,55.828z M37.28,52.897
		c-0.594-0.397-1.208-0.39-1.847,0.504l-1.055,1.476l1.967,1.406l1.055-1.475C38.04,53.914,37.874,53.295,37.28,52.897z"/>
	<path fill="#FF725E" d="M45.734,49.4l-2.241,2.512l0.829,1.55l-1.062,1.19L39.19,46.82l1.062-1.19l8.171,3.235l-1.062,1.19
		L45.734,49.4z M42.89,50.77l1.648-1.847l-3.333-1.337L42.89,50.77z"/>
	<path fill="#FF725E" d="M45.88,42.229l4.342,4.954l-1.075,0.942l-5.436-6.203l1.737-1.522l5.288,3.364l-2.641-5.684l1.737-1.522
		l5.436,6.203l-1.075,0.942L49.85,38.75l2.853,6.258l-0.993,0.87L45.88,42.229z"/>
	<path fill="#FF725E" d="M52.097,34.894l4.486-3.089l0.687,0.997l-3.263,2.247l1.248,1.813l3.082-2.122l0.655,0.952l-3.082,2.122
		l1.404,2.039l3.399-2.34l0.687,0.997l-4.623,3.183L52.097,34.894z"/>
	<path fill="#FF725E" d="M63.504,27.844l0.589,1.057l-2.115,1.178l3.428,6.152l-1.298,0.723l-3.428-6.152l-2.115,1.178l-0.589-1.057
		L63.504,27.844z"/>
	<path fill="#FF725E" d="M65.17,27.048l4.985-2.19l0.486,1.108l-3.625,1.593l0.885,2.014l3.424-1.504l0.465,1.058l-3.424,1.504
		l0.996,2.266l3.776-1.66l0.487,1.108l-5.136,2.257L65.17,27.048z"/>
	<path fill="#FF725E" d="M76.702,27.59l-1.319,0.423l1.074,3.35l-1.413,0.453l-2.518-7.851l3.192-1.024
		c2.042-0.655,3.076,0.052,3.496,1.361c0.326,1.015,0.068,1.975-1.007,2.655l3.117,2.845l-1.623,0.52L76.702,27.59z M77.802,24.756
		c-0.239-0.674-0.735-1.034-1.782-0.698l-1.727,0.554l0.738,2.303l1.728-0.554C77.805,26.025,78.041,25.43,77.802,24.756z"/>
	<path fill="#FF725E" d="M87.811,26.071c0.305,1.454-0.634,2.607-2.465,2.991c-1.379,0.289-3.021,0.071-3.885-1.098l1.058-1.122
		c0.623,0.826,1.554,1.136,2.556,0.926c0.916-0.192,1.44-0.639,1.293-1.339c-0.373-1.778-4.756,0.378-5.4-2.692
		c-0.282-1.347,0.484-2.52,2.208-2.881c1.357-0.284,2.513,0.024,3.383,0.742l-0.775,1.186c-0.501-0.458-1.368-0.838-2.337-0.635
		c-0.646,0.136-1.117,0.572-1.004,1.11C82.803,24.984,87.111,22.732,87.811,26.071z"/>
	<path fill="#FF725E" d="M89.1,26.89l1.362-0.188l0.189,1.362l-1.362,0.188L89.1,26.89z"/>
</g>
<g>
	<g>
		<g>
			<g>
				<path fill="#FF725E" d="M111.623,94.36c0.008-1.431-0.532-3.126-1.62-5.096c-0.912-1.662-2-2.934-3.232-3.811
					c-1.242-0.872-2.571-1.466-3.975-1.774c-1.413-0.308-2.856-0.374-4.337-0.187c-1.479,0.189-2.914,0.511-4.308,0.974
					c-1.076,0.352-2.069,0.717-3,1.111c-0.921,0.391-1.656,0.737-2.184,1.032l9.465,17.178c0.248-0.018,0.592-0.078,1.052-0.158
					c0.457-0.098,0.935-0.205,1.426-0.342c0.498-0.135,0.978-0.275,1.435-0.424c0.448-0.146,0.791-0.26,1.008-0.33
					c1.445-0.475,2.811-1.074,4.092-1.795c1.277-0.718,2.301-1.602,3.055-2.653C111.242,97.034,111.619,95.793,111.623,94.36
					 M114.597,77.349c2.694,1.825,5.055,4.583,7.079,8.262c1.833,3.329,2.769,6.345,2.798,9.047
					c0.031,2.697-0.568,5.115-1.798,7.248c-1.235,2.136-2.97,3.952-5.216,5.469c-2.238,1.509-4.753,2.719-7.538,3.633
					c-0.272,0.087-0.704,0.229-1.29,0.423c-0.596,0.198-1.22,0.385-1.877,0.568c-0.648,0.191-1.306,0.359-1.949,0.511
					c-0.645,0.15-1.113,0.246-1.41,0.289l10.049,18.233l-11.021,3.617L73.525,82.209c2.028-1.145,4.331-2.273,6.923-3.395
					c2.581-1.116,5.212-2.114,7.891-2.994c2.79-0.917,5.712-1.621,8.766-2.116s6.059-0.471,9.024,0.08
					C109.091,74.335,111.917,75.519,114.597,77.349"/>
			</g>
		</g>
	</g>
</g>
</svg>
